<?xml version="1.0" standalone="no"?>
<!DOCTYPE svg PUBLIC "-//W3C//DTD SVG 20010904//EN"
 "http://www.w3.org/TR/2001/REC-SVG-20010904/DTD/svg10.dtd">
<svg version="1.0" xmlns="http://www.w3.org/2000/svg"
 width="500.000000pt" height="500.000000pt" viewBox="0 0 500.000000 500.000000"
 preserveAspectRatio="xMidYMid meet">
<metadata>
Created by potrace 1.14, written by Peter Selinger 2001-2017
</metadata>
<g transform="translate(0.000000,500.000000) scale(0.100000,-0.100000)"
fill="#000000" stroke="none">
<path d="M2316 4168 c-32 -4 -70 -15 -83 -23 -13 -9 -28 -13 -33 -10 -6 3 -14
-5 -20 -19 -5 -14 -17 -26 -25 -26 -9 0 -14 -4 -11 -9 3 -5 -9 -20 -27 -34
-17 -14 -45 -37 -61 -51 -34 -30 -41 -32 -32 -10 3 9 2 12 -5 9 -5 -4 -7 -15
-4 -24 3 -10 -1 -24 -10 -31 -8 -7 -12 -16 -9 -21 5 -9 -9 -13 -35 -10 -7 2
-10 -2 -7 -7 3 -6 -5 -17 -19 -26 -14 -9 -25 -25 -25 -36 0 -10 -7 -23 -15
-27 -23 -13 -65 -75 -58 -86 3 -5 -1 -13 -8 -18 -22 -13 -16 -174 9 -239 5
-14 13 -48 16 -75 3 -28 9 -68 13 -90 4 -22 6 -45 5 -51 -1 -7 7 -14 18 -17
11 -3 24 -16 29 -29 7 -17 10 -2 11 62 0 49 7 102 16 125 22 57 33 105 25 105
-10 0 -13 24 -12 98 1 53 6 70 31 104 17 23 30 48 29 57 0 10 -3 8 -9 -6 -5
-13 -15 -23 -21 -23 -13 0 1 21 43 61 16 15 32 23 39 18 7 -4 28 -5 47 -2 22
4 37 2 42 -7 6 -10 48 -14 162 -17 188 -3 259 -9 267 -20 3 -4 16 -9 29 -10
29 -4 72 -32 72 -48 0 -7 14 -15 30 -18 27 -6 30 -10 30 -46 0 -22 -7 -46 -15
-54 -11 -12 -12 -17 -2 -20 9 -4 9 -7 0 -18 -17 -18 -16 -29 2 -29 8 0 15 -7
15 -15 0 -8 4 -15 9 -15 6 0 24 -20 42 -45 18 -25 39 -45 47 -45 9 0 12 -3 9
-7 -9 -9 13 -34 24 -27 5 3 9 3 9 1 0 -3 9 -40 20 -83 11 -44 19 -101 18 -129
-1 -39 -2 -43 -5 -16 -3 24 -7 31 -13 21 -5 -9 -7 3 -4 31 2 25 1 36 -4 24 -4
-11 -13 -20 -19 -21 -28 -2 -30 -5 -25 -29 3 -17 -1 -27 -12 -31 -9 -3 -13
-10 -10 -15 3 -5 10 -6 16 -3 7 4 8 -2 3 -17 -4 -13 -14 -28 -21 -32 -8 -4
-14 -19 -14 -33 0 -14 -4 -23 -9 -20 -4 3 -13 -5 -19 -18 -6 -13 -24 -30 -41
-37 -16 -7 -27 -18 -25 -24 3 -5 -3 0 -12 13 -23 31 -40 28 -19 -4 9 -14 18
-35 20 -46 l4 -21 -22 21 c-26 24 -69 42 -101 42 -13 0 -31 9 -41 20 -16 18
-16 20 4 46 12 15 21 37 21 49 0 24 -58 111 -67 101 -3 -3 -11 2 -18 11 -11
14 -12 14 -18 -1 -4 -10 -3 -15 3 -11 6 3 10 -1 10 -9 0 -9 5 -16 11 -16 5 0
7 -5 3 -12 -5 -7 -11 -5 -21 7 -7 11 -13 14 -13 8 0 -7 6 -15 13 -20 12 -7 16
-8 48 -11 9 -1 21 -13 27 -26 9 -20 8 -25 -4 -30 -25 -9 -64 -7 -64 4 0 20
-27 9 -69 -26 -39 -34 -43 -35 -60 -20 -19 17 -76 22 -86 7 -8 -14 14 -24 51
-23 18 1 36 -3 39 -8 3 -6 -1 -10 -9 -10 -9 0 -16 -7 -16 -16 0 -9 -6 -14 -13
-11 -15 6 -80 -56 -70 -66 3 -4 17 0 29 8 13 8 29 12 37 9 8 -3 17 2 21 12 6
15 8 15 31 0 31 -21 44 -20 40 2 -1 9 0 11 2 5 3 -7 19 -13 36 -14 18 0 50 -6
72 -13 l40 -13 -60 -1 c-106 -2 -189 -10 -218 -21 -46 -18 -60 -14 -55 13 6
30 -14 41 -43 23 -26 -16 -34 -49 -20 -87 5 -17 8 -45 5 -63 l-6 -32 21 33
c12 18 29 36 39 39 9 4 19 9 22 13 11 13 131 30 211 29 46 0 78 -3 72 -6 -7
-2 -13 -10 -13 -18 0 -14 -33 -29 -102 -46 -50 -12 -67 -38 -25 -40 21 0 21
-1 2 -9 -22 -10 -22 -10 20 -16 16 -3 37 -12 46 -20 13 -11 19 -12 24 -4 4 7
20 10 36 8 16 -3 29 -1 29 4 0 4 4 8 9 8 5 0 4 -11 -2 -25 -7 -14 -18 -23 -25
-20 -7 2 -23 0 -37 -5 -15 -6 -26 -6 -30 0 -4 6 -11 10 -17 10 -7 0 -7 -4 1
-13 13 -16 5 -27 -21 -27 -10 0 -27 -9 -38 -20 -20 -20 -20 -20 -40 0 -18 18
-20 18 -29 2 -9 -15 -12 -15 -36 8 -22 20 -28 22 -35 10 -5 -8 -12 -11 -16 -7
-4 3 -1 13 5 21 16 19 8 32 -23 38 -25 5 -42 -14 -31 -33 4 -5 -2 -6 -11 -2
-10 4 -22 0 -30 -12 -12 -16 -14 -15 -33 16 -12 19 -21 28 -21 21 0 -10 -4 -9
-16 3 -9 9 -19 14 -21 11 -6 -6 35 -65 62 -88 31 -27 191 -118 207 -118 8 0
29 -11 48 -25 19 -14 30 -25 25 -25 -5 0 1 -7 13 -16 18 -12 20 -19 12 -34 -8
-15 -5 -23 12 -40 12 -11 26 -20 30 -20 5 0 6 -5 3 -10 -4 -7 11 -10 42 -9 26
1 52 1 57 0 6 0 -6 -18 -25 -38 -28 -30 -23 -28 26 13 33 27 85 68 117 91 31
23 86 71 123 106 l66 63 -1 70 c0 51 6 88 26 144 26 73 42 206 23 194 -14 -8
-10 9 6 30 8 11 15 33 15 49 0 25 3 27 23 22 24 -8 25 -8 45 -6 21 2 13 17
-10 18 -13 1 -28 10 -35 19 -18 25 -16 39 3 20 8 -9 21 -16 29 -16 15 0 15 31
0 43 -6 5 -3 7 8 3 29 -9 79 5 73 21 -3 8 -2 12 3 9 15 -10 24 148 11 188 -12
37 -46 56 -71 40 -8 -4 -9 -3 -5 4 11 17 -5 14 -26 -5 -10 -9 -21 -14 -24 -11
-3 3 0 37 6 74 5 38 11 75 12 82 1 6 4 12 8 12 4 0 13 21 19 48 7 26 17 55 22
64 5 10 9 28 9 41 0 30 -68 197 -90 222 -10 11 -25 43 -33 70 -12 42 -22 56
-65 86 -32 22 -68 39 -95 42 -24 3 -79 20 -122 36 -43 17 -98 33 -122 36 -25
2 -49 7 -54 10 -5 4 -9 1 -9 -6 0 -8 -4 -8 -12 -2 -20 16 -58 19 -122 11z
m253 -44 c10 -9 -75 -3 -89 6 -10 7 1 8 35 4 28 -4 52 -8 54 -10z m81 -33 c0
-4 -11 -6 -25 -3 -14 2 -25 6 -25 8 0 2 11 4 25 4 14 0 25 -4 25 -9z m45 -11
c19 -8 19 -9 -2 -9 -12 -1 -25 4 -28 9 -7 12 2 12 30 0z m195 -102 c0 -14 -19
1 -31 25 -12 22 -12 22 10 3 11 -11 21 -23 21 -28z m-789 4 c-5 -10 -18 -25
-27 -33 -11 -9 -9 -2 6 19 26 35 36 42 21 14z m849 -166 c0 -5 -7 -3 -15 4 -8
7 -12 17 -9 22 7 10 24 -9 24 -26z m-19 -18 c16 -29 2 -21 -22 15 -17 23 -18
28 -6 18 10 -8 23 -23 28 -33z m-1016 -18 c-3 -5 -12 -10 -18 -10 -7 0 -6 4 3
10 19 12 23 12 15 0z m-2 -55 c4 -8 2 -17 -4 -21 -13 -8 -39 3 -39 16 0 6 5 8
10 5 6 -3 10 -1 10 4 0 16 17 13 23 -4z m-43 -65 c0 -5 1 -13 3 -17 1 -3 -6
-7 -15 -9 -20 -3 -20 -2 -12 20 7 18 24 22 24 6z m4 -56 c3 -8 2 -12 -4 -9 -6
3 -10 10 -10 16 0 14 7 11 14 -7z m1171 -364 l6 -45 -15 34 c-11 22 -21 31
-31 27 -20 -7 -19 -1 2 24 22 25 30 16 38 -40z m-98 -2 c-3 -7 -5 -2 -5 12 0
14 2 19 5 13 2 -7 2 -19 0 -25z m23 -78 c0 -5 -2 -10 -4 -10 -3 0 -8 5 -11 10
-3 6 -1 10 4 10 6 0 11 -4 11 -10z m-403 -366 c-3 -3 -12 -4 -19 -1 -8 3 -5 6
6 6 11 1 17 -2 13 -5z"/>
<path d="M1976 3953 c-6 -14 -5 -15 5 -6 7 7 10 15 7 18 -3 3 -9 -2 -12 -12z"/>
<path d="M2587 3474 c-1 -1 -14 -4 -27 -6 -14 -2 -37 -12 -52 -22 -16 -10 -34
-16 -42 -13 -8 3 -16 -2 -19 -15 -3 -11 -10 -17 -16 -13 -6 3 -14 -1 -17 -9
-7 -19 -53 -21 -59 -3 -3 7 -27 13 -58 15 -180 11 -236 0 -267 -51 -18 -30
-19 -32 -2 -38 13 -4 16 -15 13 -44 -2 -34 -1 -37 16 -30 20 9 73 9 82 -1 3
-3 -1 -11 -10 -17 -29 -22 -10 -37 46 -37 62 0 103 27 136 91 20 41 45 53 95
47 22 -2 30 -9 34 -29 6 -30 61 -99 67 -83 2 7 20 8 51 3 73 -11 207 19 227
50 3 6 11 8 18 5 7 -2 21 4 31 15 17 18 16 21 -7 65 -13 25 -27 43 -30 40 -3
-3 -4 3 -3 12 2 28 -69 62 -141 67 -35 2 -64 3 -66 1z m3 -165 c0 -5 -10 -9
-21 -9 -18 0 -19 2 -9 15 12 15 30 12 30 -6z m-450 -39 c0 -5 -7 -10 -15 -10
-8 0 -15 5 -15 10 0 6 7 10 15 10 8 0 15 -4 15 -10z m37 -26 c-3 -3 -12 -4
-19 -1 -8 3 -5 6 6 6 11 1 17 -2 13 -5z"/>
<path d="M1782 3238 c-18 -18 -14 -88 8 -133 11 -22 19 -45 20 -51 0 -6 8 -19
19 -28 16 -15 15 -10 -5 31 -37 75 -40 110 -15 144 22 29 21 49 -3 49 -6 0
-17 -5 -24 -12z"/>
<path d="M2865 3230 c-3 -5 -1 -10 4 -10 6 0 11 5 11 10 0 6 -2 10 -4 10 -3 0
-8 -4 -11 -10z"/>
<path d="M1872 3147 c-6 -7 -14 -31 -18 -54 -5 -35 -3 -43 17 -57 13 -9 26
-16 29 -16 3 0 5 30 5 67 0 66 -11 87 -33 60z"/>
<path d="M2550 2980 c0 -5 5 -10 11 -10 5 0 7 5 4 10 -3 6 -8 10 -11 10 -2 0
-4 -4 -4 -10z"/>
<path d="M2468 2793 c6 -2 18 -2 25 0 6 3 1 5 -13 5 -14 0 -19 -2 -12 -5z"/>
<path d="M2072 2700 c0 -19 2 -27 5 -17 2 9 2 25 0 35 -3 9 -5 1 -5 -18z"/>
<path d="M2951 2478 c-2 -39 -32 -112 -94 -224 -63 -113 -133 -285 -173 -424
-19 -63 -41 -115 -68 -153 -37 -55 -41 -57 -54 -40 -13 17 -14 16 -8 -8 4 -20
-9 -48 -69 -138 l-74 -113 -23 38 c-88 146 -143 255 -164 324 -18 58 -9 137
17 153 11 7 19 23 19 39 0 16 5 28 11 28 8 0 8 4 0 14 -19 22 3 54 52 77 41
18 41 19 12 18 -16 0 -50 -10 -75 -22 -55 -29 -69 -61 -69 -169 -1 -61 -4 -78
-15 -78 -12 0 -14 24 -13 140 1 145 -8 185 -32 134 -10 -22 -10 -25 1 -17 14
12 15 -20 8 -268 -2 -63 -1 -120 2 -125 3 -5 4 -18 2 -29 -2 -11 -4 -47 -5
-80 -2 -33 -7 -66 -13 -73 -6 -8 -6 -16 0 -20 5 -4 9 -44 10 -89 1 -64 -2 -83
-12 -83 -8 0 -14 -4 -14 -10 0 -5 4 -10 10 -10 5 0 7 -7 4 -15 -4 -8 -10 -15
-16 -15 -5 0 -7 3 -4 8 2 4 -3 16 -11 27 -9 11 -13 13 -11 5 7 -21 -15 -40
-33 -29 -11 7 -11 9 4 9 21 0 22 14 1 35 -10 9 -14 24 -10 38 4 18 1 23 -14
24 -12 1 -20 -5 -21 -15 0 -14 -2 -13 -9 3 -15 34 -12 50 5 35 20 -16 29 -7
20 20 -6 18 -9 19 -23 8 -13 -11 -15 -11 -10 3 4 9 1 22 -5 28 -8 8 -7 11 6
11 9 0 17 5 17 11 0 6 -6 9 -14 6 -8 -3 -17 1 -20 9 -3 7 -2 13 2 13 4 -1 16
-1 27 0 23 1 9 17 -20 23 -13 2 -22 14 -25 33 -4 20 -11 30 -22 29 -14 -1 -16
4 -11 27 9 45 -20 36 -35 -11 -16 -52 -16 -84 1 -74 8 5 8 2 -2 -9 -9 -12 -12
-34 -9 -72 4 -52 -5 -76 -15 -37 -2 9 -4 -7 -5 -37 0 -29 -4 -56 -9 -60 -4 -3
-9 -24 -10 -45 -1 -26 2 -34 8 -25 10 16 11 16 14 -34 2 -26 -1 -37 -11 -37
-15 0 -14 -25 0 -49 5 -8 3 -16 -5 -22 -11 -7 -10 -9 4 -9 9 0 18 6 18 13 1 6
5 -4 8 -23 7 -36 -7 -90 -22 -90 -5 0 -3 -8 4 -17 13 -17 13 -17 -6 -1 -19 16
-21 16 -31 -7 -10 -20 -9 -22 5 -17 14 5 15 4 1 -18 -11 -18 -14 -39 -10 -72
3 -26 2 -44 -2 -42 -17 11 -33 -103 -18 -122 7 -8 5 -15 -5 -24 -8 -7 -15 -22
-15 -34 0 -17 2 -18 10 -6 8 11 9 7 4 -15 -4 -16 -10 -34 -14 -40 -4 -5 -4
-19 1 -30 12 -30 11 -35 -6 -29 -11 5 -15 -1 -16 -22 -1 -22 -4 -18 -10 16 -5
25 -11 63 -14 85 -12 95 -18 130 -24 135 -11 8 -30 80 -21 80 9 0 10 53 1 60
-4 3 -12 16 -19 30 -12 25 -12 25 -7 -5 4 -22 3 -26 -5 -15 -5 8 -10 27 -10
41 0 40 -22 63 -56 56 -23 -4 -26 -3 -13 6 9 7 14 18 11 26 -3 10 1 12 14 8
17 -6 17 -5 3 5 -21 18 -32 48 -16 48 8 0 6 4 -3 10 -13 9 -13 10 0 10 11 0
12 2 2 8 -7 5 -15 19 -17 32 -6 33 -28 44 -39 20 -11 -24 -26 -26 -26 -5 0 8
5 15 11 15 5 0 8 4 4 9 -3 5 3 12 12 14 11 3 8 5 -9 6 -26 1 -28 4 -25 38 1
20 -3 38 -8 40 -6 2 -11 -7 -10 -19 0 -13 -4 -23 -10 -23 -5 0 -10 5 -10 10 0
12 -8 15 -35 15 -13 0 -18 -5 -14 -14 3 -8 11 -13 19 -10 7 3 15 -2 18 -10 4
-9 1 -13 -7 -10 -7 3 -18 -6 -25 -18 -6 -13 -18 -34 -26 -48 -13 -22 -12 -26
3 -32 16 -6 16 -7 0 -7 -20 -1 -24 -21 -8 -37 7 -7 6 -11 -3 -11 -19 0 -60
176 -96 412 -8 50 -6 136 4 208 8 53 -10 38 -24 -20 -12 -49 -16 -216 -9 -397
3 -90 1 -100 -18 -115 -23 -18 -38 -49 -35 -70 1 -8 -2 -10 -10 -5 -8 5 -10 3
-4 -6 5 -8 10 -28 11 -44 2 -17 6 -53 9 -81 3 -27 7 -75 9 -105 2 -30 6 -62
10 -70 13 -34 22 -128 14 -155 -7 -27 -5 -67 9 -130 2 -11 6 -37 8 -57 2 -20
9 -46 15 -58 7 -12 10 -33 7 -46 -2 -14 0 -27 5 -30 4 -3 6 -10 3 -15 -4 -5 0
-9 7 -9 7 0 18 -10 23 -23 6 -12 20 -23 32 -25 34 -5 29 -66 -8 -106 -16 -17
-29 -37 -29 -45 0 -8 -6 -11 -15 -7 -11 4 -15 -1 -15 -19 l0 -25 250 0 250 0
1 23 0 22 9 -22 c9 -21 13 -21 202 -21 106 0 183 2 171 5 -27 5 -31 23 -5 24
10 0 12 3 5 6 -16 6 -17 53 -2 53 5 0 7 5 4 10 -4 6 -11 8 -16 5 -5 -4 -9 4
-8 17 0 13 3 17 6 11 8 -21 23 -15 24 10 1 15 3 17 6 5 2 -9 16 -19 30 -23 24
-6 24 -7 7 -19 -16 -12 -17 -16 -4 -32 9 -11 10 -15 3 -10 -9 5 -13 1 -14 -11
0 -10 -2 -26 -4 -36 -3 -16 49 -17 1018 -15 l1020 3 4 25 c2 14 10 111 18 215
21 277 14 501 -25 775 -17 124 -35 229 -40 235 -10 12 -25 76 -21 93 1 6 -3
12 -9 12 -5 0 -9 3 -9 8 1 4 0 10 -1 15 -1 4 -3 10 -5 15 -7 27 -19 41 -29 35
-6 -3 -8 -3 -4 1 4 5 2 20 -4 35 -13 32 -19 442 -7 457 14 17 -1 46 -19 39 -9
-3 -13 -3 -10 1 10 10 -18 60 -38 68 -14 5 -15 4 -5 -8 15 -18 6 -37 -14 -30
-8 4 -18 -1 -21 -10 -3 -9 -10 -13 -15 -10 -5 3 -6 10 -3 16 4 7 2 8 -5 4 -7
-5 -25 -29 -41 -54 -16 -26 -30 -44 -30 -40 0 18 62 138 72 138 6 0 9 3 5 6
-3 4 -29 -10 -57 -30 -55 -40 -84 -45 -99 -18 -8 13 -10 14 -11 2 0 -10 -3
-11 -8 -4 -4 7 -35 15 -68 19 -53 6 -64 4 -75 -12 -10 -12 -29 -19 -60 -20
-39 -2 -48 1 -52 17 -3 11 -11 20 -19 20 -10 0 -10 -2 2 -10 8 -5 11 -12 7
-17 -7 -7 -22 8 -30 30 -1 5 -20 10 -41 12 -21 2 -41 6 -44 9 -3 3 -11 1 -18
-5 -11 -9 -15 -7 -20 6 -4 9 -1 20 6 25 8 5 9 9 1 14 -6 4 -11 5 -11 1 0 -3
-9 -1 -20 5 -11 6 -20 19 -20 30 0 10 -27 45 -60 76 -33 32 -55 61 -49 64 5 4
-11 11 -36 17 -47 11 -59 1 -33 -25 7 -7 9 -12 5 -12 -3 0 -28 20 -54 45 -26
24 -51 45 -56 45 -4 0 -12 11 -16 24 -6 15 -21 25 -43 30 -26 5 -30 9 -18 16
13 8 13 10 -1 10 -12 0 -20 14 -27 48 -7 32 -10 39 -11 20z m196 -340 c-3 -8
-6 -5 -6 6 -1 11 2 17 5 13 3 -3 4 -12 1 -19z m223 -104 c0 -8 -5 -12 -10 -9
-6 4 -8 11 -5 16 9 14 15 11 15 -7z m135 -23 c3 -5 1 -12 -5 -16 -5 -3 -10 1
-10 9 0 18 6 21 15 7z m396 -164 c-13 -13 -15 1 -4 30 7 17 8 17 11 -1 2 -10
-1 -23 -7 -29z m-964 -189 c-3 -7 -5 -2 -5 12 0 14 2 19 5 13 2 -7 2 -19 0
-25z m54 -5 c-12 -20 -14 -14 -5 12 4 9 9 14 11 11 3 -2 0 -13 -6 -23z m-354
-5 c-3 -8 -6 -5 -6 6 -1 11 2 17 5 13 3 -3 4 -12 1 -19z m-13 -52 c-3 -15 -8
-25 -11 -23 -2 3 -1 17 3 31 3 15 8 25 11 23 2 -3 1 -17 -3 -31z m312 9 c-3
-8 1 -18 9 -22 11 -7 11 -14 -4 -47 -12 -26 -21 -34 -25 -25 -3 8 -4 1 -2 -14
2 -16 -3 -34 -10 -41 -7 -8 -12 -15 -11 -17 1 -3 -3 1 -9 8 -6 7 -17 13 -25
13 -11 0 -11 -2 -1 -8 9 -6 7 -13 -7 -29 -19 -20 -26 -67 -9 -57 4 3 4 12 1
22 -5 14 -3 13 9 -2 13 -17 14 -24 2 -50 -7 -17 -17 -30 -23 -29 -5 2 -9 -6
-8 -16 0 -11 -8 -39 -20 -63 -11 -23 -37 -79 -57 -123 -21 -44 -57 -120 -81
-170 -24 -49 -75 -155 -113 -235 -68 -141 -291 -565 -277 -525 44 125 60 177
85 279 17 66 33 128 36 139 4 14 3 17 -6 12 -7 -4 -4 5 6 20 10 15 21 50 26
79 4 28 16 92 27 141 10 50 38 185 60 300 23 116 46 224 52 241 5 17 11 40 13
50 21 102 30 124 43 110 4 -4 3 -10 -2 -14 -12 -9 -15 -27 -18 -117 -1 -38 -6
-75 -10 -82 -4 -6 -4 -19 -1 -30 5 -15 4 -15 -5 -3 -6 8 -11 10 -11 5 0 -6 5
-16 10 -21 7 -7 7 -20 2 -35 -11 -32 -1 -91 17 -97 9 -3 11 0 6 8 -5 9 -4 11
3 6 7 -4 12 -13 12 -19 0 -7 9 -13 19 -14 14 -1 18 3 14 14 -5 13 -2 15 15 11
21 -6 39 16 22 27 -4 3 -10 -1 -13 -7 -2 -7 -7 -10 -11 -7 -13 12 25 40 45 34
23 -8 24 -2 3 19 -14 15 -13 16 8 17 22 0 22 1 3 9 -18 8 -17 9 7 9 17 1 29 8
33 21 3 11 13 20 21 20 8 0 13 -3 11 -7 -3 -5 -1 -17 4 -28 7 -16 8 -15 5 9
-1 16 -11 35 -22 43 -18 15 -18 15 7 11 26 -5 26 -3 21 35 -3 28 -1 43 9 51 8
6 14 22 14 36 0 20 4 24 23 22 18 -3 25 3 33 27 6 17 17 31 25 31 8 0 14 4 14
10 0 5 -8 7 -17 4 -10 -2 -8 1 5 7 24 13 28 24 12 34 -9 5 -3 35 7 35 3 0 3
-7 -1 -15z m29 5 c3 -5 1 -10 -4 -10 -6 0 -11 5 -11 10 0 6 2 10 4 10 3 0 8
-4 11 -10z m842 -12 c-3 -8 -6 -5 -6 6 -1 11 2 17 5 13 3 -3 4 -12 1 -19z
m-917 -38 c0 -11 -4 -20 -9 -20 -5 0 -7 9 -4 20 3 11 7 20 9 20 2 0 4 -9 4
-20z m901 -26 c-5 -16 -10 -21 -10 -12 -1 18 10 51 15 45 2 -1 -1 -16 -5 -33z
m-21 -81 c-11 -17 -11 -17 -6 0 3 10 7 26 7 35 1 15 2 15 6 0 2 -10 -1 -25 -7
-35z m-973 -105 c-3 -8 -6 -5 -6 6 -1 11 2 17 5 13 3 -3 4 -12 1 -19z m-470
-170 c-2 -13 -4 -5 -4 17 -1 22 1 32 4 23 2 -10 2 -28 0 -40z m119 25 c7 -25
8 -25 15 -8 4 12 8 14 8 6 1 -20 -29 -51 -49 -51 -20 0 -40 19 -40 40 0 44 56
55 66 13z m-79 -25 c-3 -7 -5 -2 -5 12 0 14 2 19 5 13 2 -7 2 -19 0 -25z m640
-64 c-3 -3 -12 -4 -19 -1 -8 3 -5 6 6 6 11 1 17 -2 13 -5z m-1007 -102 c-13
-5 -13 -35 1 -49 7 -7 6 -12 -5 -16 -15 -6 -23 19 -24 70 -1 20 2 21 19 10 10
-6 15 -13 9 -15z m-600 -15 c0 -5 -4 -5 -10 -2 -5 3 -10 14 -10 23 0 15 2 15
10 2 5 -8 10 -19 10 -23z m7 -69 c-3 -8 -6 -5 -6 6 -1 11 2 17 5 13 3 -3 4
-12 1 -19z m1496 -15 c-7 -2 -19 -2 -25 0 -7 3 -2 5 12 5 14 0 19 -2 13 -5z
m-1043 -248 c0 -8 -2 -15 -4 -15 -2 0 -6 7 -10 15 -3 8 -1 15 4 15 6 0 10 -7
10 -15z m-7 -197 c-4 -7 -8 -16 -8 -20 0 -12 -15 -22 -15 -10 0 7 -9 12 -20
12 -33 0 -23 18 13 23 17 2 33 5 35 5 2 1 0 -4 -5 -10z m-23 -93 c0 -8 -7 -15
-16 -15 -14 0 -14 3 -4 15 7 8 14 15 16 15 2 0 4 -7 4 -15z m5 -38 c4 5 2 -3
-5 -16 -6 -13 -8 -21 -3 -18 5 3 15 2 23 -4 13 -7 13 -9 0 -9 -17 -1 -47 -57
-42 -80 1 -8 17 -25 35 -38 29 -20 30 -22 9 -22 -14 0 -22 6 -22 16 0 10 -5
14 -16 10 -8 -3 -13 -2 -10 3 3 5 0 11 -8 14 -10 4 -12 0 -9 -14 3 -10 1 -19
-4 -19 -5 0 -10 19 -11 42 -1 23 -5 50 -8 60 -6 20 11 25 19 6 4 -10 6 -10 6
0 1 7 -6 15 -14 18 -9 4 -15 19 -15 36 0 17 4 27 10 23 6 -3 10 -1 10 5 0 6 9
4 23 -5 13 -8 27 -12 32 -8z m-36 -214 c-1 -10 -5 -29 -9 -43 -7 -21 -8 -19
-9 18 -1 23 4 42 9 42 6 0 10 -8 9 -17z m60 -70 c0 -11 -3 -13 -6 -5 -2 6 -9
10 -14 6 -5 -3 -9 0 -9 5 0 6 7 11 15 11 8 0 15 -8 14 -17z"/>
<path d="M2885 1470 c-3 -6 1 -7 9 -4 18 7 21 14 7 14 -6 0 -13 -4 -16 -10z"/>
<path d="M2570 1380 c0 -5 5 -10 10 -10 6 0 10 5 10 10 0 6 -4 10 -10 10 -5 0
-10 -4 -10 -10z"/>
<path d="M2566 1345 c-3 -8 -1 -15 4 -15 6 0 10 7 10 15 0 8 -2 15 -4 15 -2 0
-6 -7 -10 -15z"/>
<path d="M2770 1261 c0 -6 4 -12 8 -15 5 -3 9 1 9 9 0 8 -4 15 -9 15 -4 0 -8
-4 -8 -9z"/>
<path d="M2420 1211 c0 -7 -4 -9 -10 -6 -5 3 -10 -2 -10 -12 0 -12 8 -19 20
-20 14 -1 19 4 17 17 -4 23 -17 39 -17 21z"/>
<path d="M1797 289 c7 -7 15 -10 18 -7 3 3 -2 9 -12 12 -14 6 -15 5 -6 -5z"/>
<path d="M2210 2321 c0 -19 81 -129 133 -179 45 -45 56 -51 66 -39 9 12 3 21
-36 50 -52 39 -92 81 -131 140 -25 38 -32 44 -32 28z"/>
<path d="M2141 2144 c0 -11 3 -14 6 -6 3 7 2 16 -1 19 -3 4 -6 -2 -5 -13z"/>
<path d="M2050 2121 c-8 -4 -26 -14 -40 -21 -14 -8 -38 -21 -55 -30 -47 -25
-85 -52 -85 -60 0 -11 58 3 95 23 29 15 105 82 105 92 0 6 -1 6 -20 -4z"/>
<path d="M2576 2023 c33 -30 60 -73 46 -73 -5 0 -9 -6 -9 -13 0 -16 -51 -98
-70 -114 -9 -7 -13 -19 -9 -29 6 -16 8 -15 22 4 8 12 20 19 26 16 7 -4 8 -2 4
4 -7 12 37 79 61 95 7 4 13 13 13 19 0 17 -69 97 -93 109 -16 7 -13 2 9 -18z"/>
<path d="M1950 1944 c0 -9 44 -43 56 -44 6 0 18 8 25 18 13 15 12 16 -4 3 -15
-12 -20 -11 -40 8 -23 21 -37 27 -37 15z"/>
<path d="M2480 1846 c0 -2 8 -10 18 -17 15 -13 16 -12 3 4 -13 16 -21 21 -21
13z"/>
<path d="M1916 1794 c-5 -14 -4 -15 9 -4 17 14 19 20 6 20 -5 0 -12 -7 -15
-16z"/>
<path d="M2415 1793 c-23 -6 -55 -32 -55 -45 0 -5 7 -3 15 6 31 30 128 32 147
3 5 -8 8 -4 8 9 0 11 -6 21 -12 22 -7 0 -29 3 -48 6 -19 2 -44 2 -55 -1z"/>
<path d="M1885 1749 c-4 -6 -5 -12 -2 -15 2 -3 7 2 10 11 7 17 1 20 -8 4z"/>
<path d="M1845 1461 c-3 -5 -1 -12 5 -16 5 -3 10 1 10 9 0 18 -6 21 -15 7z"/>
<path d="M2100 1380 c0 -6 7 -10 15 -10 8 0 15 2 15 4 0 2 -7 6 -15 10 -8 3
-15 1 -15 -4z"/>
<path d="M1835 1351 c-3 -5 -2 -12 3 -15 5 -3 9 1 9 9 0 17 -3 19 -12 6z"/>
<path d="M1397 1303 c-3 -5 -1 -17 4 -28 7 -17 8 -17 8 8 1 27 -4 34 -12 20z"/>
<path d="M1400 1179 c0 -5 5 -7 10 -4 6 3 10 8 10 11 0 2 -4 4 -10 4 -5 0 -10
-5 -10 -11z"/>
<path d="M1859 1068 c-5 -17 -4 -48 3 -48 4 0 8 11 8 25 0 20 -7 34 -11 23z"/>
<path d="M1788 913 c6 -2 18 -2 25 0 6 3 1 5 -13 5 -14 0 -19 -2 -12 -5z"/>
<path d="M1790 891 c0 -6 4 -13 10 -16 6 -3 7 1 4 9 -7 18 -14 21 -14 7z"/>
</g>
</svg>
